<svg xmlns="http://www.w3.org/2000/svg" version="1.1" xmlns:xlink="http://www.w3.org/1999/xlink" xmlns:svgjs="http://svgjs.dev/svgjs" width="2000" height="1247" viewBox="0 0 2000 1247"><g transform="matrix(1,0,0,1,-1.2121212121212466,0.504858299595071)"><svg viewBox="0 0 396 247" data-background-color="#a30d2b" preserveAspectRatio="xMidYMid meet" height="1247" width="2000" xmlns="http://www.w3.org/2000/svg" xmlns:xlink="http://www.w3.org/1999/xlink"><g id="tight-bounds" transform="matrix(1,0,0,1,0.2400000000000091,-0.09999999999999432)"><svg viewBox="0 0 395.52 247.2" height="247.2" width="395.52"><g><svg></svg></g><g><svg viewBox="0 0 395.52 247.2" height="247.2" width="395.52"><g transform="matrix(1,0,0,1,75.54432,105.66209409836065)"><svg viewBox="0 0 244.43135999999998 35.875811803278694" height="35.875811803278694" width="244.43135999999998"><g><svg viewBox="0 0 244.43135999999998 35.875811803278694" height="35.875811803278694" width="244.43135999999998"><g><svg viewBox="0 0 244.43135999999998 35.875811803278694" height="35.875811803278694" width="244.43135999999998"><g><svg viewBox="0 0 244.43135999999998 35.875811803278694" height="35.875811803278694" width="244.43135999999998"><g id="textblocktransform"><svg viewBox="0 0 244.43135999999998 35.875811803278694" height="35.875811803278694" width="244.43135999999998" id="textblock"><g><svg viewBox="0 0 244.43135999999998 35.875811803278694" height="35.875811803278694" width="244.43135999999998"><g transform="matrix(1,0,0,1,0,0)"><svg width="244.43135999999998" viewBox="1 -28.15 195.18 28.65" height="35.875811803278694" data-palette-color="#ecdbdf"><path d="M3.3 0L1 0 11.35-28.15 15.1-28.15 25.55 0 23.15 0 13.25-27.1 3.3 0ZM20.4-9.25L6.05-9.25 6.5-11.25 20-11.25 20.4-9.25ZM30.7 0L28.4 0 28.4-20.3 30.3-20.3 30.7-14.9 30.8-14.9Q30.9-15.25 31.3-16.1 31.7-16.95 32.55-17.93 33.4-18.9 34.8-19.6 36.2-20.3 38.3-20.3L38.3-20.3Q40.4-20.3 41.77-19.7 43.15-19.1 44.02-18.07 44.9-17.05 45.35-15.73 45.8-14.4 45.95-12.95 46.1-11.5 46.1-10.05L46.1-10.05 46.1 0 43.85 0 43.85-10.05Q43.85-12.55 43.3-14.38 42.75-16.2 41.45-17.2 40.15-18.2 37.85-18.2L37.85-18.2Q35.4-18.2 33.82-17 32.25-15.8 31.47-13.85 30.7-11.9 30.7-9.6L30.7-9.6 30.7 0ZM53.2 0L50.9 0 50.9-20.3 53.2-20.3 53.2 0ZM52.1-23.55L52.1-23.55Q51.1-23.55 50.72-24.08 50.35-24.6 50.35-25.3L50.35-25.3Q50.35-26 50.72-26.5 51.1-27 52.1-27L52.1-27Q53.15-27 53.47-26.5 53.8-26 53.8-25.3L53.8-25.3Q53.8-24.6 53.47-24.08 53.15-23.55 52.1-23.55ZM60.09 0L57.84 0 57.84-20.3 59.84-20.3 60.09-14.9 60.19-14.9Q60.29-15.35 60.67-16.23 61.04-17.1 61.82-18.03 62.59-18.95 63.82-19.63 65.04-20.3 66.94-20.3L66.94-20.3Q68.89-20.3 70.14-19.5 71.39-18.7 72.07-17.48 72.74-16.25 73.04-14.9L73.04-14.9 73.14-14.9Q73.29-15.35 73.72-16.23 74.14-17.1 74.97-18.05 75.79-19 77.09-19.65 78.39-20.3 80.29-20.3L80.29-20.3Q82.24-20.3 83.52-19.5 84.79-18.7 85.52-17.48 86.24-16.25 86.57-14.85 86.89-13.45 86.97-12.15 87.04-10.85 87.04-10.05L87.04-10.05 87.04 0 84.79 0 84.79-10.05Q84.79-10.95 84.72-12.3 84.64-13.65 84.17-15 83.69-16.35 82.64-17.28 81.59-18.2 79.69-18.2L79.69-18.2Q77.59-18.2 76.24-17 74.89-15.8 74.22-13.85 73.54-11.9 73.54-9.6L73.54-9.6 73.54 0 71.34 0 71.34-10.05Q71.34-10.95 71.24-12.3 71.14-13.65 70.69-15 70.24-16.35 69.19-17.28 68.14-18.2 66.24-18.2L66.24-18.2Q64.14-18.2 62.77-17 61.39-15.8 60.74-13.85 60.09-11.9 60.09-9.6L60.09-9.6 60.09 0ZM100.19 0.5L100.19 0.5Q96.94 0.5 94.82-1.05 92.69-2.6 91.64-5.03 90.59-7.45 90.64-10.05L90.64-10.05Q90.64-12.75 91.74-15.1 92.84-17.45 94.97-18.88 97.09-20.3 100.14-20.3L100.14-20.3Q102.69-20.3 104.67-19.18 106.64-18.05 107.84-16.03 109.04-14 109.19-11.2L109.19-11.2Q109.24-10.95 109.24-10.6 109.24-10.25 109.24-9.95L109.24-9.95 92.84-9.95Q92.84-6.1 94.77-3.8 96.69-1.5 100.19-1.5L100.19-1.5Q102.74-1.5 104.62-2.85 106.49-4.2 106.94-6.5L106.94-6.5 109.19-6.5Q108.84-4.45 107.59-2.88 106.34-1.3 104.44-0.4 102.54 0.5 100.19 0.5ZM92.99-11.45L92.99-11.45 106.89-11.45Q106.84-12.4 106.47-13.58 106.09-14.75 105.29-15.85 104.49-16.95 103.22-17.65 101.94-18.35 100.14-18.35L100.14-18.35Q98.49-18.35 97.24-17.78 95.99-17.2 95.12-16.25 94.24-15.3 93.72-14.08 93.19-12.85 92.99-11.45ZM129.59-28.15L129.59 0 127.29 0 127.29-28.15 129.59-28.15ZM146.84 0L146.84-28.15 149.09-28.15 149.09 0 146.84 0ZM147.84-15.55L147.84-13.6 128.64-13.6 128.64-15.55 147.84-15.55ZM162.33 0.5L162.33 0.5Q160.43 0.5 159.06-0.05 157.68-0.6 156.78-1.58 155.88-2.55 155.38-3.83 154.88-5.1 154.68-6.6 154.48-8.1 154.48-9.7L154.48-9.7 154.48-20.3 156.73-20.3 156.73-9.7Q156.73-7.45 157.21-5.6 157.68-3.75 159.03-2.68 160.38-1.6 162.88-1.6L162.88-1.6Q165.28-1.6 166.71-2.73 168.13-3.85 168.83-5.63 169.53-7.4 169.63-9.4L169.63-9.4 169.63-20.3 171.98-20.3 171.98 0 170.08 0 169.68-4.85 169.58-4.85Q169.33-4.05 168.78-3.15 168.23-2.25 167.36-1.4 166.48-0.55 165.23-0.03 163.98 0.5 162.33 0.5ZM187.08 0.5L187.08 0.5Q185.08 0.5 183.68-0.2 182.28-0.9 181.36-1.9 180.43-2.9 179.96-3.78 179.48-4.65 179.38-4.9L179.38-4.9 179.28-4.9 178.88 0 176.93 0 176.93-28.15 179.33-28.15 179.33-14.8 179.43-14.8Q179.53-15.15 179.96-16.03 180.38-16.9 181.26-17.9 182.13-18.9 183.56-19.6 184.98-20.3 187.08-20.3L187.08-20.3Q189.98-20.3 192.01-18.93 194.03-17.55 195.11-15.18 196.18-12.8 196.18-9.9L196.18-9.9Q196.18-6.95 195.11-4.6 194.03-2.25 192.01-0.88 189.98 0.5 187.08 0.5ZM186.78-1.65L186.78-1.65Q189.28-1.65 190.86-2.83 192.43-4 193.16-5.93 193.88-7.85 193.88-9.9L193.88-9.9Q193.88-12 193.08-13.88 192.28-15.75 190.63-16.93 188.98-18.1 186.48-18.1L186.48-18.1Q184.48-18.1 182.88-17.13 181.28-16.15 180.33-14.33 179.38-12.5 179.38-9.9L179.38-9.9Q179.38-7.3 180.38-5.43 181.38-3.55 183.06-2.6 184.73-1.65 186.78-1.65Z" opacity="1" transform="matrix(1,0,0,1,0,0)" fill="#000000" class="wordmark-text-0" data-fill-palette-color="primary" id="text-0"></path></svg></g></svg></g></svg></g></svg></g></svg></g></svg></g></svg></g><path d="M180.372 99.662L180.372 36.588 6.348 36.588 6.348 210.612 180.372 210.612 180.372 147.538 177.136 147.538 177.136 207.376 9.584 207.376 9.584 39.824 177.136 39.824 177.136 99.662Z" fill="#000000" stroke="transparent" data-fill-palette-color="tertiary"></path></svg></g><defs></defs></svg><rect width="395.52" height="247.2" fill="none" stroke="none" visibility="hidden"></rect></g></svg></g></svg>